<?xml version="1.0" standalone="no"?><!DOCTYPE svg PUBLIC "-//W3C//DTD SVG 1.1//EN" "http://www.w3.org/Graphics/SVG/1.1/DTD/svg11.dtd"><svg class="icon" width="32px" height="32.00px" viewBox="0 0 1024 1024" version="1.1" xmlns="http://www.w3.org/2000/svg"><path fill="#2c2c2c" d="M6.486 512c0 69.797 56.581 126.38 126.38 126.38s126.38-56.581 126.38-126.38c0 0 0 0 0 0 0-69.797-56.581-126.38-126.38-126.38-69.797 0-126.38 56.581-126.38 126.38 0 0 0 0 0 0zM385.62 512c0 69.797 56.581 126.38 126.38 126.38s126.38-56.581 126.38-126.38c0 0 0 0 0 0 0-69.797-56.581-126.38-126.38-126.38-69.797 0-126.38 56.581-126.38 126.38 0 0 0 0 0 0zM764.756 512c0 0 0 0 0 0 0 69.797 56.581 126.38 126.38 126.38 69.797 0 126.38-56.581 126.38-126.38 0 0 0 0 0 0 0 0 0 0 0 0 0-69.797-56.581-126.38-126.38-126.38-69.797 0-126.38 56.581-126.38 126.38s0 0 0 0z" /></svg>