<?xml version="1.0" standalone="no"?><!DOCTYPE svg PUBLIC "-//W3C//DTD SVG 1.1//EN" "http://www.w3.org/Graphics/SVG/1.1/DTD/svg11.dtd"><svg class="icon" width="32px" height="32.00px" viewBox="0 0 1024 1024" version="1.1" xmlns="http://www.w3.org/2000/svg"><path fill="#2c2c2c" d="M955.8 464.2L528.7 70.8c-11.2-5.6-28.1-11.2-39.3 5.6L73.5 469.8c-16.9 11.2-11.2 45 16.9 45h84.3v415.9c0 16.9 11.2 28.1 28.1 28.1h224.8c16.9 0 28.1-11.2 28.1-28.1V683.4H568v247.3c0 16.9 11.2 28.1 28.1 28.1h224.8c16.9 0 28.1-11.2 28.1-28.1V542.9c0-16.9-11.2-28.1-28.1-28.1-16.9 0-28.1 11.2-28.1 28.1v359.7H624.2V655.3c0-16.9-11.2-28.1-28.1-28.1H427.5c-16.9 0-28.1 11.2-28.1 28.1v247.3H230.8V486.7c0-16.9-11.2-28.1-28.1-28.1h-39.3l348.4-325.9 404.6 370.9c11.2 11.2 28.1 11.2 39.3 0 5.7-5.7 5.7-28.2 0.1-39.4z" /></svg>