<?xml version="1.0" standalone="no"?><!DOCTYPE svg PUBLIC "-//W3C//DTD SVG 1.1//EN" "http://www.w3.org/Graphics/SVG/1.1/DTD/svg11.dtd"><svg class="icon" width="32px" height="32.00px" viewBox="0 0 1024 1024" version="1.1" xmlns="http://www.w3.org/2000/svg"><path fill="#ffffff" d="M228.512 382.96c42.56 0 77.024-31.008 77.024-69.008 0-38.064-34.464-69.12-77.024-69.12-42.544 0-77.008 31.056-77.008 69.12C151.504 351.936 185.968 382.96 228.512 382.96zM164.624 410.848l-48.352 74.576 89.52 55.808c0 0 59.6 30.48 31.328 87.68-26.848 54.176-157.2 172.784-157.2 172.784l116.912 72.912c80.688-175.328 75.648-151.968 95.968-214.912 20.848-64.384 25.264-113.504-9.984-148.848C237.216 465.216 232.176 460.976 164.624 410.848zM922.384 391.296c0 0-25.072-197.344-457.12-75.008 18.304-32.112 27.376-53.152 27.376-53.152l-108-30.176c0 0-43.488 141.856-121.072 208.16 0 0 75.056 43.248 74.304 42.016 21.472-21.44 40.656-43.36 57.584-64.576 17.168-7.584 33.824-14.576 50.048-21.216-19.872 36-52.192 89.728-84.464 123.664l45.456 39.776c0 0 30.88-29.776 64.768-65.712l38.704 0 0 66.288-150.64 0 0 52.992 150.64 0 0 127.024c-1.952-0.08-3.92-0.08-5.744-0.336-16.608-0.736-42.608-3.504-52.576-19.44-12.32-19.424-3.344-55.12-2.656-77.072l-103.792 0-3.776 1.952c0 0-37.872 170.32 109.856 166.56 138.128 3.696 217.408-38.464 255.408-67.616l15.152 56.304 85.296-35.408-57.6-141.376-69.376 21.536 13.008 48.48c-17.792 13.184-38.368 23.104-60.304 30.496l0-111.104 146.784 0 0-52.992-146.784 0 0-66.288 147.424 0 0-52.96L518.4 442.112c18.816-22.976 33.664-43.936 37.632-57.376l-45.584-12.32c195.712-70 304.784-58.08 303.792 56.816l0 302.704c0 0 11.616 104.208-107.6 96.592l-64.384-13.872-15.072 61.232c0 0 278.176 79.424 300.944-134.416C950.864 527.6 922.384 391.296 922.384 391.296z" /></svg>