<?xml version="1.0" standalone="no"?><!DOCTYPE svg PUBLIC "-//W3C//DTD SVG 1.1//EN" "http://www.w3.org/Graphics/SVG/1.1/DTD/svg11.dtd"><svg class="icon" width="32px" height="32.00px" viewBox="0 0 1024 1024" version="1.1" xmlns="http://www.w3.org/2000/svg"><path fill="#2c2c2c" d="M512 921.6c226.2272 0 409.6-183.3728 409.6-409.6S738.2272 102.4 512 102.4 102.4 285.7728 102.4 512s183.3728 409.6 409.6 409.6z m0 51.2c-254.4896 0-460.8-206.3104-460.8-460.8S257.5104 51.2 512 51.2s460.8 206.3104 460.8 460.8-206.3104 460.8-460.8 460.8z m266.9312-192.768c-7.5008-60.7744-79.5136-118.528-177.792-150.5792a17.408 17.408 0 0 1-6.5536-29.184c57.7024-54.528 99.0208-136.192 99.0208-200.064 0-107.52-78.5152-195.4048-176.0768-195.4048-97.536 0-176.0512 87.8848-176.0512 195.4048 0 63.872 41.3184 145.5616 98.9952 200.064a17.408 17.408 0 0 1-6.5536 29.184c-97.9968 31.9488-169.8816 89.472-177.7152 150.0928a25.6 25.6 0 1 0 50.7904 6.5536c4.608-35.9168 61.5936-81.4848 142.8224-107.9808 49.4592-16.128 63.6416-79.3088 25.8304-115.0464-48.128-45.5168-82.9696-114.3552-82.9696-162.8672 0-80.4352 56.96-144.2048 124.8512-144.2048 67.9168 0 124.8768 63.744 124.8768 144.2048 0 48.512-34.816 117.3504-82.9696 162.8672-37.8112 35.7376-23.6288 98.9184 25.856 115.0464 81.3824 26.5472 138.3936 72.2688 142.8224 108.1856a25.6 25.6 0 0 0 50.816-6.272z" /></svg>