<?xml version="1.0" standalone="no"?><!DOCTYPE svg PUBLIC "-//W3C//DTD SVG 1.1//EN" "http://www.w3.org/Graphics/SVG/1.1/DTD/svg11.dtd"><svg class="icon" width="32px" height="32.00px" viewBox="0 0 1024 1024" version="1.1" xmlns="http://www.w3.org/2000/svg"><path fill="#2c2c2c" d="M931.967 812.606c-10.738 0-19.443-8.705-19.443-19.442V185.12c0-19.176-15.6-34.777-34.776-34.777H403.372c-19.176 0-34.776 15.601-34.776 34.777v114.511L182.414 403.844a138.84 138.84 0 0 0-50.488 48.55 146.942 146.942 0 0 0-21.632 76.76v264.009c0 10.737-8.705 19.442-19.443 19.442-10.738 0-19.443-8.705-19.443-19.442V529.156c0-34.272 9.459-67.836 27.354-97.065a177.807 177.807 0 0 1 64.659-62.18l166.29-93.076v-91.714c0-40.617 33.044-73.662 73.661-73.662h474.375c40.617 0 73.662 33.044 73.662 73.662v608.043c0 10.737-8.705 19.442-19.442 19.442z"  /><path fill="#2c2c2c" d="M391.177 592.249H225.92c-10.738 0-19.442-8.706-19.442-19.443s8.704-19.443 19.442-19.443h126.372V425.458c0-10.739 8.705-19.443 19.442-19.443 10.739 0 19.443 8.704 19.443 19.443v166.79zM701.189 680.98c-59.533 0-108.914 43.434-118.202 100.34H433.48c-9.29-56.906-58.67-100.34-118.202-100.34-66.154 0-119.783 53.628-119.783 119.78s53.629 119.783 119.783 119.783c59.531 0 108.911-43.432 118.202-100.337h149.508c9.29 56.905 58.67 100.337 118.202 100.337 66.154 0 119.782-53.629 119.782-119.782S767.342 680.98 701.189 680.98zM315.277 881.657c-44.606 0-80.897-36.29-80.897-80.896s36.29-80.896 80.897-80.896c44.605 0 80.895 36.29 80.895 80.896 0 44.607-36.29 80.896-80.895 80.896z m385.912 0c-44.606 0-80.896-36.29-80.896-80.896s36.29-80.896 80.896-80.896 80.896 36.29 80.896 80.896c0 44.607-36.29 80.896-80.896 80.896z"  /></svg>